<svg version="1.1" id="Layer_1" xmlns="http://www.w3.org/2000/svg" xmlns:xlink="http://www.w3.org/1999/xlink" x="0px" y="0px"
	 width="100%" viewBox="0 0 631 586" enable-background="new 0 0 631 586" xml:space="preserve">
<path fill="#241E21" opacity="1.000000" stroke="none" 
	d="
M506.000000,587.000000 
	C450.644012,587.000000 395.288055,587.000000 339.329285,586.680420 
	C333.471558,575.603760 328.216583,564.846680 322.424194,552.989502 
	C328.626190,553.608093 333.036652,554.048035 337.447113,554.487915 
	C334.614410,549.046814 331.402832,544.875488 328.152039,540.734924 
	C324.673126,536.303711 325.076233,535.579895 330.396423,533.712891 
	C332.828735,532.859375 334.824005,530.760376 337.017456,529.226196 
	C335.289124,527.355103 333.720001,525.297180 331.795288,523.656494 
	C328.880859,521.172241 325.718903,518.978333 321.892273,516.077454 
	C326.855469,513.918701 330.450470,512.355042 334.651581,510.527740 
	C329.746857,507.028168 326.069672,503.938934 321.970703,501.583679 
	C314.979218,497.566345 314.785034,495.976807 321.487061,490.983826 
	C321.846283,490.716217 322.027222,490.209351 322.687836,489.219482 
	C320.191345,487.759491 317.820282,486.350342 315.428009,484.978210 
	C308.801727,481.177521 302.010620,477.630219 295.634094,473.449799 
	C293.820282,472.260651 291.825012,468.843872 292.320129,467.153839 
	C293.379761,463.536835 292.005371,461.817413 289.519592,460.090759 
	C284.788635,456.804474 280.062286,453.511139 275.296051,450.276703 
	C274.880402,449.994629 274.183960,450.126312 273.119080,450.012482 
	C273.652863,451.282806 274.142273,451.999664 274.233795,452.764191 
	C274.394379,454.105682 274.311218,455.476379 274.330170,456.834839 
	C272.810089,456.580627 271.171692,456.593964 269.806305,455.990051 
	C268.655731,455.481201 267.795197,454.282471 266.852905,453.342346 
	C259.895233,446.401093 252.939499,439.457733 246.002640,432.495636 
	C240.402649,426.875366 240.413467,426.830231 245.860931,420.919220 
	C243.421402,418.103729 240.811523,415.346771 238.490280,412.365082 
	C231.393661,403.249298 224.210083,394.188660 217.492737,384.797272 
	C215.310379,381.746155 214.460220,377.742218 213.426300,374.113159 
	C217.310791,374.235077 217.415176,371.854431 217.410370,369.393005 
	C217.394409,361.227325 217.555023,353.056427 217.314972,344.897308 
	C217.022537,334.957825 214.576202,331.971130 204.964264,328.488770 
	C205.044205,323.818146 201.781967,324.326538 198.590988,324.483917 
	C199.527878,322.029694 200.264236,320.100739 201.416962,318.106445 
	C212.798706,319.618988 223.769714,322.540924 234.728287,322.495026 
	C257.584717,322.399231 280.508514,321.547089 303.265289,319.475128 
	C323.915649,317.594910 344.381165,313.684692 365.155579,310.937256 
	C370.509827,315.920746 374.561615,322.786102 382.800629,319.991058 
	C383.959534,321.756531 384.810333,324.206696 385.776550,324.253113 
	C387.213226,324.322052 388.806824,322.791351 390.188446,321.748993 
	C391.097626,321.063049 391.596313,319.734070 392.559265,319.243683 
	C393.726990,318.649048 395.190155,318.634613 396.525513,318.369141 
	C396.336914,319.706726 396.370361,321.126801 395.910919,322.363770 
	C395.092926,324.565979 393.976715,326.657379 392.985229,328.795135 
	C395.013428,327.453094 396.985565,326.013367 399.090393,324.804718 
	C400.407501,324.048370 401.924438,323.639984 403.351715,323.075470 
	C403.499786,324.450226 403.747223,325.824249 403.758026,327.200073 
	C403.764282,328.005402 403.392975,328.813690 402.875549,329.761536 
	C395.692017,332.504028 395.268158,333.847687 399.774841,338.988373 
	C404.553802,336.365967 409.697327,334.189667 414.687988,337.709167 
	C416.688965,339.120361 417.379913,342.389099 418.543518,344.579620 
	C412.025116,346.220642 406.359985,346.871063 401.392059,349.085510 
	C394.527557,352.145355 392.137695,361.176361 395.326233,368.449463 
	C397.915405,374.355408 404.520966,376.675415 411.819458,374.016296 
	C414.241486,373.133850 416.461273,371.696259 419.159790,370.314728 
	C421.090851,374.514526 424.233948,375.812897 428.585602,374.346252 
	C427.649445,370.098602 426.361603,366.060608 425.960632,361.936401 
	C425.545624,357.667999 425.991211,353.315948 426.512634,349.000366 
	C431.386536,348.078125 435.891968,347.435730 440.203247,346.144867 
	C443.614777,345.123474 445.257324,346.074432 445.600555,349.385468 
	C444.738708,349.598480 444.180328,349.797333 443.297363,350.070404 
	C441.652313,351.521240 440.331818,352.897858 439.011292,354.274445 
	C440.852966,354.936127 442.672668,355.674347 444.549713,356.212646 
	C445.109772,356.373230 445.830322,355.974030 446.692078,356.076599 
	C452.523071,366.495300 460.865204,373.154816 472.507965,374.508392 
	C480.554626,375.443878 488.734161,375.236298 497.065369,375.792480 
	C499.330811,378.129395 500.843628,377.506348 502.390350,374.985260 
	C504.086090,374.608185 505.395020,374.363617 506.695892,374.081940 
	C525.690063,369.968811 543.449341,363.257965 556.894775,348.463470 
	C566.878235,337.478424 571.960938,324.697388 566.377930,310.018127 
	C561.746521,297.840881 553.341797,288.580048 541.422668,282.709564 
	C521.605164,272.948914 500.203949,270.192505 478.618896,269.121460 
	C445.476959,267.476959 412.996857,272.035980 380.868408,280.387054 
	C344.168640,289.926300 307.347260,299.081787 270.332977,307.296783 
	C246.295273,312.631744 221.832092,316.177765 196.998627,312.404724 
	C196.084106,308.377350 195.277313,304.742462 194.227936,301.179047 
	C193.303314,298.039368 192.107605,294.979492 191.486603,291.901489 
	C196.091507,292.113281 200.242157,292.293091 204.391174,292.505188 
	C224.173645,293.516449 244.012253,295.936249 263.721069,295.139221 
	C281.569763,294.417419 299.533844,291.306793 316.994598,287.285095 
	C358.144196,277.807129 399.009155,267.080017 441.116272,262.445740 
	C451.463928,261.306885 461.801025,259.645844 472.178223,259.308228 
	C485.609985,258.871216 499.079559,259.419495 512.527832,259.749176 
	C518.350952,259.891876 524.161438,260.548431 529.977722,260.971588 
	C529.478455,259.705109 528.813599,259.312378 528.118713,258.983337 
	C508.561249,249.724167 487.662506,245.999664 466.318176,245.144089 
	C440.175598,244.096130 414.461914,246.938324 388.883392,253.285553 
	C356.482880,261.325653 323.784149,268.412903 290.917236,274.235809 
	C269.517242,278.027161 247.609070,279.079224 225.889496,280.889984 
	C212.631561,281.995300 199.299545,282.211945 185.935272,282.462219 
	C184.619049,277.923431 183.368332,273.750122 182.529724,269.623199 
	C192.751785,271.099121 202.552307,273.632996 212.373764,273.716827 
	C230.091507,273.868195 248.060989,274.116425 265.485168,271.449005 
	C286.410400,268.245575 307.143829,262.940491 327.473114,256.904602 
	C353.740234,249.105743 379.739563,240.542679 407.412354,239.628510 
	C419.069336,239.243408 430.749603,239.564331 443.821564,239.564331 
	C439.786377,237.694611 436.874756,235.932800 433.720398,234.950546 
	C412.548553,228.357834 390.923126,227.776932 369.102448,230.543015 
	C352.022675,232.708099 335.977417,238.615784 319.752197,244.018570 
	C272.896729,259.620880 224.286560,264.115997 175.072662,265.842438 
	C173.586914,262.758331 171.993835,260.049652 171.211151,257.124146 
	C170.423859,254.181335 170.442780,251.022827 170.461273,248.003174 
	C178.095551,251.296677 178.065720,251.265900 183.856781,245.653473 
	C187.318863,242.298187 190.907257,239.073624 194.412308,235.762207 
	C206.985916,223.883209 219.506531,211.947464 232.167450,200.162384 
	C233.753036,198.686493 236.021606,197.182632 238.035736,197.093536 
	C241.780579,196.927872 245.614258,197.569916 249.333191,198.281906 
	C256.065979,199.570892 262.210785,199.530533 267.755066,194.416321 
	C272.256256,190.264313 277.636993,187.073853 282.214294,182.993286 
	C284.799988,180.688202 286.816376,180.991165 289.255463,182.581436 
	C301.258759,190.407516 313.898834,197.437546 325.043152,206.339691 
	C333.030701,212.720169 339.413605,213.639954 347.198547,207.374863 
	C350.625092,204.617294 354.233246,204.539017 358.210175,206.922134 
	C361.731232,209.032059 365.698151,210.399979 369.474457,212.081528 
	C375.418701,214.728439 381.368164,217.363647 387.562897,220.113678 
	C387.624878,219.046127 387.783661,218.600861 387.640167,218.456863 
	C375.656830,206.431702 363.730560,194.346634 351.523315,182.552399 
	C350.271545,181.342987 347.006592,181.090164 345.247437,181.803360 
	C342.755371,182.813751 340.706421,185.037384 338.625061,186.916367 
	C333.781433,191.288971 333.251556,191.336105 328.654480,186.388474 
	C315.637756,172.379120 302.665100,158.328812 289.644989,144.322632 
	C286.124237,140.535248 283.402893,140.632172 280.169037,144.391281 
	C273.486084,152.159698 267.123932,160.246780 259.967346,167.553970 
	C251.408707,176.292709 252.878799,176.678696 244.842621,168.346527 
	C242.903442,166.335922 240.852554,165.112885 238.414017,167.422211 
	C234.791321,170.852997 231.132629,174.263351 227.737869,177.913635 
	C220.404388,185.799103 213.280869,193.879501 205.974899,201.791016 
	C197.880203,210.556671 189.634995,219.183395 181.547531,227.955643 
	C179.010406,230.707611 176.617172,231.091553 173.906281,228.384537 
	C171.903198,226.384354 169.856293,224.426559 167.895538,222.385864 
	C165.017868,219.390854 162.486084,219.671021 159.926712,222.910400 
	C159.448944,221.059387 159.005066,219.341476 159.091843,217.650787 
	C159.181015,215.913055 160.492401,213.991394 160.050919,212.514313 
	C157.729858,204.748962 155.334686,196.974030 152.323273,189.459702 
	C150.735626,185.498062 147.942719,181.990219 145.499191,178.410446 
	C143.670746,175.731796 141.471176,173.309692 139.545258,170.693542 
	C137.330322,167.684753 135.157211,164.638153 133.131866,161.500839 
	C132.474350,160.482315 132.186432,159.150284 131.995667,157.920364 
	C131.551590,155.057297 131.562424,152.095276 130.859848,149.306671 
	C129.452225,143.719772 127.891220,138.151611 125.984032,132.719498 
	C125.120605,130.260239 123.168396,128.203003 121.922470,125.850899 
	C121.169800,124.429977 119.966713,122.424454 120.442978,121.316467 
	C122.651833,116.177780 121.758194,112.572685 116.972382,109.334579 
	C115.547951,108.370804 114.531891,104.622131 115.266617,103.062263 
	C117.372177,98.592064 116.314125,95.452507 112.970558,92.425690 
	C110.027428,89.761353 108.820587,86.604286 109.953552,82.538750 
	C110.278999,81.370934 109.483948,79.759071 108.893822,78.494965 
	C107.613953,75.753349 106.360085,72.954727 104.691238,70.448677 
	C100.944229,64.821930 98.811584,58.820679 99.055969,51.980206 
	C99.090874,51.003269 97.784630,50.047935 97.404716,48.974438 
	C95.883675,44.676628 94.255638,40.394867 93.119324,35.990520 
	C92.381935,33.132412 93.445641,29.349720 91.941940,27.230267 
	C86.001511,18.857248 86.537979,10.119807 89.000000,1.000000 
	C269.918427,1.000000 450.836884,1.000000 632.000000,1.000000 
	C632.000000,139.355881 632.000000,277.711914 631.686646,416.670593 
	C629.570007,418.936981 626.706238,420.309235 626.154419,422.316956 
	C624.195801,429.442657 618.924927,433.248444 612.880615,435.527191 
	C603.973145,438.885254 600.469604,447.350922 594.328308,453.277100 
	C593.410095,454.163177 593.149109,456.046082 593.121338,457.478271 
	C593.046936,461.308472 592.471008,464.440216 587.651550,464.773071 
	C586.825317,464.830139 585.780029,466.167603 585.377441,467.138214 
	C583.587585,471.453796 582.037048,475.868134 580.294800,480.204498 
	C579.946533,481.071320 579.290039,481.992462 578.517944,482.482086 
	C573.348999,485.759979 567.890930,488.629639 562.977417,492.244446 
	C560.085022,494.372314 556.547546,497.320282 555.899536,500.439392 
	C554.649536,506.456451 552.536255,510.538574 546.968445,512.935181 
	C541.496338,515.290588 536.143066,517.932190 530.803894,520.581787 
	C528.152588,521.897522 525.233704,523.083130 523.168335,525.083740 
	C519.128540,528.996948 515.491699,533.349976 511.923645,537.713623 
	C510.654388,539.265869 509.011505,541.723938 509.473755,543.134705 
	C509.921631,544.501892 512.774658,545.313660 514.712769,545.909729 
	C518.351318,547.028931 522.091675,547.816650 526.132019,548.827881 
	C525.285034,550.282837 525.129089,550.807983 524.778809,551.099548 
	C524.017029,551.733398 523.173279,552.275085 522.333130,552.807373 
	C511.619141,559.594849 503.705139,567.925049 505.964722,582.011902 
	C506.225037,583.634766 506.000000,585.335388 506.000000,587.000000 
M319.872589,382.949219 
	C312.390564,379.097595 312.390564,379.097595 309.739807,386.028870 
	C315.513458,390.147095 322.013153,391.680756 328.985229,390.922302 
	C338.432709,389.894470 344.721832,381.818512 342.306641,374.144073 
	C340.351349,367.930908 334.329559,365.045258 326.551300,366.269562 
	C323.320648,366.778107 319.995209,366.684601 316.712891,366.864899 
	C316.594025,366.076874 316.475159,365.288849 316.356293,364.500824 
	C318.178223,363.987366 319.969818,363.230774 321.826904,362.998901 
	C336.557678,361.159882 342.672333,353.286499 339.960571,339.870544 
	C339.425507,337.223419 339.883484,334.375549 339.883484,331.620270 
	C338.445312,327.780273 338.509155,327.911133 334.477997,329.877655 
	C333.402618,330.402283 331.688782,330.188324 330.467407,329.753540 
	C320.312042,326.138306 310.459778,332.011597 309.183624,342.656067 
	C308.367645,349.462250 310.212067,355.470093 314.550415,359.436096 
	C312.942780,362.815399 310.516693,365.636780 310.551392,368.427551 
	C310.593384,371.802826 313.336578,374.268829 317.448242,374.004791 
	C321.879242,373.720276 326.332275,373.353271 330.751434,373.554535 
	C332.177826,373.619507 334.642944,375.340149 334.669128,376.354065 
	C334.716675,378.197235 333.659729,381.347809 332.416290,381.706116 
	C328.655060,382.789886 324.583527,382.796875 319.872589,382.949219 
M271.914368,338.709961 
	C275.038788,337.821930 278.115845,336.467468 281.297668,336.144226 
	C287.661255,335.497742 291.511200,339.973816 290.468292,346.350983 
	C281.537842,345.528625 273.087738,346.282288 268.367584,355.431641 
	C265.728333,360.547394 266.798920,368.873962 270.538025,371.819977 
	C277.776825,377.523376 284.823212,375.096313 291.871948,370.154388 
	C293.021027,371.481812 293.861328,373.280182 295.195312,373.792114 
	C297.019470,374.492218 299.219116,374.213989 301.257782,374.355164 
	C300.912079,372.718292 300.559570,371.082794 300.222321,369.444183 
	C299.760437,367.199860 299.004486,364.965149 298.916138,362.705139 
	C298.708191,357.386627 299.004456,352.047455 298.766663,346.731354 
	C298.257935,335.356995 294.842987,330.867126 284.976501,329.301819 
	C281.819885,328.801025 278.365662,329.486145 275.156738,330.153381 
	C269.104279,331.411865 268.646729,332.625702 271.914368,338.709961 
M351.811462,341.529114 
	C351.917297,349.019165 351.796539,356.521393 352.196777,363.995667 
	C352.551849,370.626678 357.359100,375.247314 363.959381,374.823669 
	C368.075836,374.559509 372.091919,372.731567 376.545624,371.496521 
	C377.642670,376.187988 381.226044,373.777710 384.916412,373.350494 
	C384.916412,360.096161 384.901917,347.135925 384.929443,334.175812 
	C384.934570,331.774597 384.646942,330.013153 381.498077,329.964935 
	C378.150055,329.913666 377.675720,331.745728 377.681519,334.381653 
	C377.698761,342.208252 377.765320,350.037323 377.598969,357.860870 
	C377.477264,363.584930 372.543884,368.037689 366.787140,367.968414 
	C361.673218,367.906891 359.071411,364.612793 359.024261,357.947296 
	C358.967712,349.954346 358.952240,341.960358 359.020477,333.967682 
	C359.042480,331.390076 358.409241,329.954163 355.412354,329.962860 
	C352.373718,329.971710 351.763092,331.542419 351.824799,334.047241 
	C351.878082,336.210510 351.820160,338.376556 351.811462,341.529114 
M242.590454,367.324646 
	C234.778992,363.484955 231.688248,354.057800 235.161789,344.666138 
	C238.264008,336.278381 243.199280,334.804352 256.512054,338.476746 
	C257.434662,336.721619 258.388672,334.906738 259.283203,333.204956 
	C251.882065,327.369476 239.359818,328.331512 233.818787,333.581879 
	C227.482803,339.585510 225.105530,347.117310 226.153702,355.236298 
	C228.637497,374.475311 242.339966,378.631073 256.623932,372.698425 
	C259.618408,371.454712 259.786987,369.189362 258.112549,367.183716 
	C257.323090,366.238159 255.029816,366.202637 253.461807,366.323517 
	C250.062485,366.585541 246.691376,367.213684 242.590454,367.324646 
M465.946350,386.197754 
	C463.632233,384.314758 462.375153,385.037811 462.132629,387.835419 
	C461.910034,390.403320 461.831238,392.983673 461.698059,395.395874 
	C460.776886,395.591064 460.415894,395.790955 460.140656,395.707642 
	C454.804291,394.092285 450.246948,395.203979 446.960602,399.827148 
	C443.467316,404.741333 443.256927,410.115112 446.347290,415.183807 
	C449.355896,420.118439 454.096954,420.910858 459.426483,419.291046 
	C460.157440,419.068909 461.114716,419.149841 461.839844,419.425598 
	C465.296753,420.739899 466.424194,419.160675 466.401276,415.958862 
	C466.332245,406.324188 466.274170,396.689423 465.946350,386.197754 
M441.249176,399.999298 
	C436.240265,394.502014 429.230835,393.368805 423.890594,397.192963 
	C418.908386,400.760803 417.722717,408.998779 421.297699,415.208862 
	C423.797852,419.551849 431.621796,421.355591 437.003845,418.911682 
	C440.097565,417.506866 440.608887,415.852875 437.925751,413.562073 
	C429.860413,417.870392 425.237701,416.073456 424.725067,408.021698 
	C428.718750,408.021698 432.683533,408.036072 436.648224,408.018372 
	C442.903625,407.990448 443.586609,406.959625 441.249176,399.999298 
M395.210846,399.736053 
	C392.239166,395.507355 386.922241,393.723083 382.223846,395.766113 
	C380.879486,396.350739 380.019348,398.049011 378.937164,399.236572 
	C380.481232,399.404266 382.143738,400.021606 383.546356,399.652191 
	C387.200195,398.689789 389.752625,399.137268 390.988403,403.289490 
	C387.828369,403.956726 385.143738,404.202087 382.707306,405.112030 
	C378.881195,406.541077 376.188690,409.544739 376.576569,413.662720 
	C376.895447,417.048492 379.149811,419.990540 383.152832,419.895050 
	C387.968079,419.780212 392.772614,419.215576 396.995575,418.890747 
	C396.541321,412.868439 396.073761,406.670227 395.210846,399.736053 
M360.451294,385.996246 
	C358.208527,386.324402 354.824646,384.935760 354.756500,388.912476 
	C354.594055,398.394928 354.654358,407.883392 354.828796,417.365631 
	C354.843842,418.184357 356.370667,418.975281 357.195221,419.779114 
	C357.781433,418.932800 358.981689,417.983002 358.859131,417.256195 
	C357.596436,409.766937 360.326508,406.542877 368.201508,405.916229 
	C373.526489,405.492462 375.940460,400.917023 375.773560,395.740875 
	C375.623444,391.084534 372.870239,388.212952 367.211090,386.957306 
	C365.282013,386.529297 363.306305,386.311432 360.451294,385.996246 
M492.459259,420.012848 
	C500.278290,419.692688 504.584900,415.711182 503.986359,409.467224 
	C503.533051,404.738403 500.059113,402.897552 496.391998,401.114990 
	C493.103790,399.516663 488.265198,398.645264 489.912354,393.451996 
	C491.478821,388.513123 495.379608,389.912750 499.023804,391.255707 
	C499.655182,391.488342 501.098236,390.566650 501.572510,389.807251 
	C501.886414,389.304626 501.411713,387.814392 500.824524,387.325439 
	C497.374817,384.453094 488.304810,386.075806 485.910614,389.869812 
	C482.904083,394.634399 484.606781,400.160217 490.011841,403.020355 
	C492.208435,404.182709 494.562469,405.074432 496.668610,406.374786 
	C499.904968,408.372894 500.302094,412.084412 497.102509,414.083801 
	C495.136658,415.312256 492.224121,414.976593 489.765930,415.484802 
	C488.280792,415.791809 486.851715,416.369873 485.397430,416.826172 
	C486.640808,417.813110 487.810425,418.922913 489.159882,419.733215 
	C489.800140,420.117615 490.783661,419.930298 492.459259,420.012848 
M513.009766,406.296783 
	C512.992981,403.475159 513.152100,400.635162 512.860474,397.842224 
	C512.763123,396.910095 511.512329,396.098389 510.788849,395.231628 
	C510.187500,396.058289 509.083679,396.874725 509.066650,397.713287 
	C508.958832,403.018036 508.852386,408.344238 509.217773,413.630737 
	C509.533234,418.194519 512.427368,420.230042 517.011414,420.014343 
	C520.074890,419.870178 523.172546,420.156372 526.205017,419.811157 
	C527.277222,419.689087 529.030151,418.297058 529.061523,417.433502 
	C529.302673,410.805878 529.263733,404.164001 529.107788,397.531342 
	C529.089355,396.746063 527.839600,395.989746 527.160583,395.220001 
	C526.431641,396.096466 525.165588,396.920197 525.073303,397.859222 
	C524.782471,400.820251 524.929871,403.824463 524.911194,406.811981 
	C524.877441,412.224274 522.144409,416.171906 518.119446,415.828613 
	C512.782654,415.373383 513.045898,411.088684 513.009766,406.296783 
M408.602966,402.655243 
	C410.422729,401.484711 412.218384,400.274170 414.070465,399.157227 
	C415.392273,398.360046 416.789917,397.688690 418.153748,396.961212 
	C417.909180,396.373718 417.664581,395.786255 417.420013,395.198761 
	C413.353485,395.198761 409.280731,395.090149 405.227478,395.322479 
	C404.656921,395.355164 403.751892,397.045502 403.732147,397.983978 
	C403.599731,404.270294 403.556366,410.564606 403.777649,416.845978 
	C403.813019,417.849731 405.322021,418.801605 406.149750,419.777496 
	C406.757904,418.787170 407.829773,417.825897 407.893982,416.801483 
	C408.173065,412.349121 408.158539,407.878387 408.602966,402.655243 
M534.573914,408.483887 
	C534.583008,410.812927 534.329346,413.184143 534.693665,415.456207 
	C534.936462,416.970367 536.060242,418.343201 536.789734,419.779297 
	C537.526001,418.402710 538.765259,417.072937 538.898621,415.640259 
	C539.221069,412.175354 538.848511,408.650024 539.090271,405.172272 
	C539.354431,401.373932 541.269531,399.181610 545.469910,399.129059 
	C546.727600,399.113312 547.967224,397.655548 549.215149,396.858429 
	C548.910889,396.222900 548.606689,395.587341 548.302490,394.951813 
	C545.658875,395.357422 542.594543,396.823242 540.449707,395.972076 
	C533.706177,393.295959 534.648499,397.731293 534.579834,401.511627 
	C534.543579,403.507324 534.573364,405.504272 534.573914,408.483887 
z"/>
<path fill="#211F20" opacity="1.000000" stroke="none" 
	d="
M182.117615,269.576843 
	C183.368332,273.750122 184.619049,277.923431 185.475159,282.523804 
	C172.255188,283.607208 159.429794,284.263489 146.604401,284.919800 
	C157.215103,287.162964 167.840683,288.478210 178.453812,289.887207 
	C182.660645,290.445709 186.839844,291.212433 191.031616,291.884369 
	C192.107605,294.979492 193.303314,298.039368 194.227936,301.179047 
	C195.277313,304.742462 196.084106,308.377350 196.548523,312.456421 
	C188.437515,312.576843 180.774368,312.222015 173.111206,311.867218 
	C173.075623,312.213654 173.040039,312.560120 173.004471,312.906586 
	C182.336502,314.661652 191.668549,316.416718 201.000595,318.171783 
	C200.264236,320.100739 199.527878,322.029694 198.590988,324.483917 
	C201.781967,324.326538 205.044205,323.818146 204.557343,328.541412 
	C199.967163,330.313904 195.747162,331.696655 192.154205,332.873962 
	C190.408325,331.981720 188.630920,331.073395 186.853531,330.165039 
	C186.258591,331.867188 185.171539,333.562653 185.148376,335.272552 
	C184.995193,346.571228 185.053009,357.873077 185.086426,369.173737 
	C185.093109,371.437866 184.632233,373.902557 188.335724,374.031494 
	C192.024536,374.159882 192.336182,372.055542 192.332657,369.300201 
	C192.321838,360.824860 192.260986,352.347351 192.430344,343.874939 
	C192.512070,339.787628 196.226410,336.501160 200.695724,336.062225 
	C204.891174,335.650146 208.387314,338.185883 209.233444,342.522919 
	C209.736389,345.100922 210.066956,347.748260 210.119095,350.371490 
	C210.247910,356.850342 210.000229,363.341431 210.306244,369.808533 
	C210.376953,371.302856 212.059753,372.720917 213.000717,374.174072 
	C214.460220,377.742218 215.310379,381.746155 217.492737,384.797272 
	C224.210083,394.188660 231.393661,403.249298 238.490280,412.365082 
	C240.811523,415.346771 243.421402,418.103729 245.860931,420.919220 
	C240.413467,426.830231 240.402649,426.875366 246.002640,432.495636 
	C252.939499,439.457733 259.895233,446.401093 266.852905,453.342346 
	C267.795197,454.282471 268.655731,455.481201 269.806305,455.990051 
	C271.171692,456.593964 272.810089,456.580627 274.330170,456.834839 
	C274.311218,455.476379 274.394379,454.105682 274.233795,452.764191 
	C274.142273,451.999664 273.652863,451.282806 273.119080,450.012482 
	C274.183960,450.126312 274.880402,449.994629 275.296051,450.276703 
	C280.062286,453.511139 284.788635,456.804474 289.519592,460.090759 
	C292.005371,461.817413 293.379761,463.536835 292.320129,467.153839 
	C291.825012,468.843872 293.820282,472.260651 295.634094,473.449799 
	C302.010620,477.630219 308.801727,481.177521 315.428009,484.978210 
	C317.820282,486.350342 320.191345,487.759491 322.687836,489.219482 
	C322.027222,490.209351 321.846283,490.716217 321.487061,490.983826 
	C314.785034,495.976807 314.979218,497.566345 321.970703,501.583679 
	C326.069672,503.938934 329.746857,507.028168 334.651581,510.527740 
	C330.450470,512.355042 326.855469,513.918701 321.892273,516.077454 
	C325.718903,518.978333 328.880859,521.172241 331.795288,523.656494 
	C333.720001,525.297180 335.289124,527.355103 337.017456,529.226196 
	C334.824005,530.760376 332.828735,532.859375 330.396423,533.712891 
	C325.076233,535.579895 324.673126,536.303711 328.152039,540.734924 
	C331.402832,544.875488 334.614410,549.046814 337.447113,554.487915 
	C333.036652,554.048035 328.626190,553.608093 322.424194,552.989502 
	C328.216583,564.846680 333.471558,575.603760 338.863281,586.680420 
	C226.382050,587.000000 113.764091,587.000000 1.073071,587.000000 
	C1.073071,391.666687 1.073071,196.333344 1.073071,1.000000 
	C30.087742,1.000000 59.075214,1.000000 88.531342,1.000000 
	C86.537979,10.119807 86.001511,18.857248 91.941940,27.230267 
	C93.445641,29.349720 92.381935,33.132412 93.119324,35.990520 
	C94.255638,40.394867 95.883675,44.676628 97.404716,48.974438 
	C97.784630,50.047935 99.090874,51.003269 99.055969,51.980206 
	C98.811584,58.820679 100.944229,64.821930 104.691238,70.448677 
	C106.360085,72.954727 107.613953,75.753349 108.893822,78.494965 
	C109.483948,79.759071 110.278999,81.370934 109.953552,82.538750 
	C108.820587,86.604286 110.027428,89.761353 112.970558,92.425690 
	C116.314125,95.452507 117.372177,98.592064 115.266617,103.062263 
	C114.531891,104.622131 115.547951,108.370804 116.972382,109.334579 
	C121.758194,112.572685 122.651833,116.177780 120.442978,121.316467 
	C119.966713,122.424454 121.169800,124.429977 121.922470,125.850899 
	C123.168396,128.203003 125.120605,130.260239 125.984032,132.719498 
	C127.891220,138.151611 129.452225,143.719772 130.859848,149.306671 
	C131.562424,152.095276 131.551590,155.057297 131.995667,157.920364 
	C132.186432,159.150284 132.474350,160.482315 133.131866,161.500839 
	C135.157211,164.638153 137.330322,167.684753 139.545258,170.693542 
	C141.471176,173.309692 143.670746,175.731796 145.499191,178.410446 
	C147.942719,181.990219 150.735626,185.498062 152.323273,189.459702 
	C155.334686,196.974030 157.729858,204.748962 160.050919,212.514313 
	C160.492401,213.991394 159.181015,215.913055 159.091843,217.650787 
	C159.005066,219.341476 159.448944,221.059387 159.766449,223.211258 
	C141.178665,245.364014 122.484230,267.070892 103.789803,288.777740 
	C106.035713,288.639648 107.524879,287.713531 108.934174,286.678619 
	C126.249352,273.963379 143.606277,261.303680 160.812180,248.442032 
	C164.065811,246.009888 166.865326,245.430908 170.108414,247.958832 
	C170.442780,251.022827 170.423859,254.181335 171.211151,257.124146 
	C171.993835,260.049652 173.586914,262.758331 175.242706,266.114380 
	C177.813065,267.636719 179.965347,268.606781 182.117615,269.576843 
M51.928429,369.104706 
	C51.563370,370.487305 51.198307,371.869934 50.719547,373.683167 
	C54.554844,373.753906 58.052959,375.629517 59.843128,370.639069 
	C63.314499,360.961945 63.452877,361.011597 73.889603,361.012299 
	C74.556244,361.012329 75.222885,361.011963 75.889526,361.012482 
	C83.541733,361.018188 83.541725,361.018250 85.697495,368.228973 
	C87.632133,374.700043 88.066010,374.939484 95.529633,373.052429 
	C88.601509,352.672821 81.694168,332.354340 74.786819,312.035828 
	C74.137024,312.018707 73.487228,312.001587 72.837433,311.984467 
	C65.941544,330.786530 59.045658,349.588562 51.928429,369.104706 
M174.641571,362.988068 
	C176.933762,355.979797 176.992325,348.888977 174.975174,341.859802 
	C172.754761,334.122375 167.094391,329.566711 159.569733,329.025726 
	C151.643280,328.455841 144.662842,331.929932 142.223801,339.635895 
	C140.335770,345.601013 139.769730,352.344910 140.255249,358.615692 
	C140.967392,367.812927 147.190140,373.732605 155.273178,374.870422 
	C163.760880,376.065216 170.062454,372.369354 174.641571,362.988068 
M116.854446,374.960083 
	C120.306801,374.569763 123.852028,374.548676 127.191322,373.708832 
	C133.307083,372.170654 133.657364,370.699829 129.762161,364.929382 
	C128.024536,365.681030 126.276466,366.587280 124.432449,367.208740 
	C116.828056,369.771515 109.580391,366.014374 107.929108,358.231293 
	C107.189270,354.744141 107.048615,350.895874 107.675720,347.397858 
	C109.355247,338.029541 116.485306,333.830658 125.391449,337.126068 
	C129.997772,338.830505 131.329071,336.901642 132.294266,333.267426 
	C126.131454,328.203735 116.961426,327.595856 109.798370,331.668213 
	C102.001869,336.100616 98.237480,345.915619 99.876938,357.536499 
	C101.181923,366.786560 106.586548,372.600677 116.854446,374.960083 
M286.294434,463.101227 
	C285.612823,463.439301 284.931213,463.777344 284.249634,464.115417 
	C284.549316,464.446930 284.848999,464.778412 285.148682,465.109894 
	C285.624603,464.543365 286.100525,463.976868 286.294434,463.101227 
z"/>
<path fill="#221F20" opacity="1.000000" stroke="none" 
	d="
M506.468658,587.000000 
	C506.000000,585.335388 506.225037,583.634766 505.964722,582.011902 
	C503.705139,567.925049 511.619141,559.594849 522.333130,552.807373 
	C523.173279,552.275085 524.017029,551.733398 524.778809,551.099548 
	C525.129089,550.807983 525.285034,550.282837 526.132019,548.827881 
	C522.091675,547.816650 518.351318,547.028931 514.712769,545.909729 
	C512.774658,545.313660 509.921631,544.501892 509.473755,543.134705 
	C509.011505,541.723938 510.654388,539.265869 511.923645,537.713623 
	C515.491699,533.349976 519.128540,528.996948 523.168335,525.083740 
	C525.233704,523.083130 528.152588,521.897522 530.803894,520.581787 
	C536.143066,517.932190 541.496338,515.290588 546.968445,512.935181 
	C552.536255,510.538574 554.649536,506.456451 555.899536,500.439392 
	C556.547546,497.320282 560.085022,494.372314 562.977417,492.244446 
	C567.890930,488.629639 573.348999,485.759979 578.517944,482.482086 
	C579.290039,481.992462 579.946533,481.071320 580.294800,480.204498 
	C582.037048,475.868134 583.587585,471.453796 585.377441,467.138214 
	C585.780029,466.167603 586.825317,464.830139 587.651550,464.773071 
	C592.471008,464.440216 593.046936,461.308472 593.121338,457.478271 
	C593.149109,456.046082 593.410095,454.163177 594.328308,453.277100 
	C600.469604,447.350922 603.973145,438.885254 612.880615,435.527191 
	C618.924927,433.248444 624.195801,429.442657 626.154419,422.316956 
	C626.706238,420.309235 629.570007,418.936981 631.686646,417.136597 
	C632.000000,473.582794 632.000000,530.165588 632.000000,587.000000 
	C590.312805,587.000000 548.625061,587.000000 506.468658,587.000000 
z"/>
<path fill="#251E22" opacity="1.000000" stroke="none" 
	d="
M403.191528,329.620667 
	C403.392975,328.813690 403.764282,328.005402 403.758026,327.200073 
	C403.747223,325.824249 403.499786,324.450226 403.351715,323.075470 
	C401.924438,323.639984 400.407501,324.048370 399.090393,324.804718 
	C396.985565,326.013367 395.013428,327.453094 392.985229,328.795135 
	C393.976715,326.657379 395.092926,324.565979 395.910919,322.363770 
	C396.370361,321.126801 396.336914,319.706726 396.525513,318.369141 
	C395.190155,318.634613 393.726990,318.649048 392.559265,319.243683 
	C391.596313,319.734070 391.097626,321.063049 390.188446,321.748993 
	C388.806824,322.791351 387.213226,324.322052 385.776550,324.253113 
	C384.810333,324.206696 383.959534,321.756531 382.800629,319.991058 
	C374.561615,322.786102 370.509827,315.920746 365.483765,310.764221 
	C382.588654,305.607697 399.691315,301.217438 416.574341,296.102203 
	C443.863800,287.834015 471.605194,282.767365 500.178314,283.243683 
	C512.731140,283.452881 525.119324,285.136353 536.500610,291.044739 
	C542.769409,294.299011 547.947815,298.831329 549.837036,305.851685 
	C556.595703,330.966766 549.757629,349.619324 522.517578,356.990082 
	C521.071838,357.381256 519.611206,357.720428 518.150574,358.052917 
	C493.034241,363.770599 469.225189,358.598755 445.904022,349.371277 
	C445.257324,346.074432 443.614777,345.123474 440.203247,346.144867 
	C435.891968,347.435730 431.386536,348.078125 426.446960,348.568787 
	C425.834259,346.814606 425.784180,345.486877 425.637604,344.169922 
	C424.406799,333.112701 418.718872,328.323578 407.621948,329.029541 
	C406.138611,329.123901 404.668030,329.418701 403.191528,329.620667 
z"/>
<path fill="#134D9B" opacity="1.000000" stroke="none" 
	d="
M445.600555,349.385468 
	C469.225189,358.598755 493.034241,363.770599 518.150574,358.052917 
	C519.611206,357.720428 521.071838,357.381256 522.517578,356.990082 
	C549.757629,349.619324 556.595703,330.966766 549.837036,305.851685 
	C547.947815,298.831329 542.769409,294.299011 536.500610,291.044739 
	C525.119324,285.136353 512.731140,283.452881 500.178314,283.243683 
	C471.605194,282.767365 443.863800,287.834015 416.574341,296.102203 
	C399.691315,301.217438 382.588654,305.607697 365.256378,310.496460 
	C344.381165,313.684692 323.915649,317.594910 303.265289,319.475128 
	C280.508514,321.547089 257.584717,322.399231 234.728287,322.495026 
	C223.769714,322.540924 212.798706,319.618988 201.416962,318.106445 
	C191.668549,316.416718 182.336502,314.661652 173.004471,312.906586 
	C173.040039,312.560120 173.075623,312.213654 173.111206,311.867218 
	C180.774368,312.222015 188.437515,312.576843 196.550781,312.879974 
	C221.832092,316.177765 246.295273,312.631744 270.332977,307.296783 
	C307.347260,299.081787 344.168640,289.926300 380.868408,280.387054 
	C412.996857,272.035980 445.476959,267.476959 478.618896,269.121460 
	C500.203949,270.192505 521.605164,272.948914 541.422668,282.709564 
	C553.341797,288.580048 561.746521,297.840881 566.377930,310.018127 
	C571.960938,324.697388 566.878235,337.478424 556.894775,348.463470 
	C543.449341,363.257965 525.690063,369.968811 506.695892,374.081940 
	C505.395020,374.363617 504.086090,374.608185 502.019287,374.950256 
	C499.789917,375.200195 498.322113,375.369843 496.854340,375.539520 
	C488.734161,375.236298 480.554626,375.443878 472.507965,374.508392 
	C460.865204,373.154816 452.523071,366.495300 446.561035,355.740906 
	C445.350830,353.438721 444.486389,351.717438 443.621918,349.996155 
	C444.180328,349.797333 444.738708,349.598480 445.600555,349.385468 
z"/>
<path fill="#134D9B" opacity="1.000000" stroke="none" 
	d="
M170.461273,248.003174 
	C166.865326,245.430908 164.065811,246.009888 160.812180,248.442032 
	C143.606277,261.303680 126.249352,273.963379 108.934174,286.678619 
	C107.524879,287.713531 106.035713,288.639648 103.789803,288.777740 
	C122.484230,267.070892 141.178665,245.364014 160.033356,223.356308 
	C162.486084,219.671021 165.017868,219.390854 167.895538,222.385864 
	C169.856293,224.426559 171.903198,226.384354 173.906281,228.384537 
	C176.617172,231.091553 179.010406,230.707611 181.547531,227.955643 
	C189.634995,219.183395 197.880203,210.556671 205.974899,201.791016 
	C213.280869,193.879501 220.404388,185.799103 227.737869,177.913635 
	C231.132629,174.263351 234.791321,170.852997 238.414017,167.422211 
	C240.852554,165.112885 242.903442,166.335922 244.842621,168.346527 
	C252.878799,176.678696 251.408707,176.292709 259.967346,167.553970 
	C267.123932,160.246780 273.486084,152.159698 280.169037,144.391281 
	C283.402893,140.632172 286.124237,140.535248 289.644989,144.322632 
	C302.665100,158.328812 315.637756,172.379120 328.654480,186.388474 
	C333.251556,191.336105 333.781433,191.288971 338.625061,186.916367 
	C340.706421,185.037384 342.755371,182.813751 345.247437,181.803360 
	C347.006592,181.090164 350.271545,181.342987 351.523315,182.552399 
	C363.730560,194.346634 375.656830,206.431702 387.640167,218.456863 
	C387.783661,218.600861 387.624878,219.046127 387.562897,220.113678 
	C381.368164,217.363647 375.418701,214.728439 369.474457,212.081528 
	C365.698151,210.399979 361.731232,209.032059 358.210175,206.922134 
	C354.233246,204.539017 350.625092,204.617294 347.198547,207.374863 
	C339.413605,213.639954 333.030701,212.720169 325.043152,206.339691 
	C313.898834,197.437546 301.258759,190.407516 289.255463,182.581436 
	C286.816376,180.991165 284.799988,180.688202 282.214294,182.993286 
	C277.636993,187.073853 272.256256,190.264313 267.755066,194.416321 
	C262.210785,199.530533 256.065979,199.570892 249.333191,198.281906 
	C245.614258,197.569916 241.780579,196.927872 238.035736,197.093536 
	C236.021606,197.182632 233.753036,198.686493 232.167450,200.162384 
	C219.506531,211.947464 206.985916,223.883209 194.412308,235.762207 
	C190.907257,239.073624 187.318863,242.298187 183.856781,245.653473 
	C178.065720,251.265900 178.095551,251.296677 170.461273,248.003174 
z"/>
<path fill="#134D9A" opacity="1.000000" stroke="none" 
	d="
M191.486603,291.901489 
	C186.839844,291.212433 182.660645,290.445709 178.453812,289.887207 
	C167.840683,288.478210 157.215103,287.162964 146.604401,284.919800 
	C159.429794,284.263489 172.255188,283.607208 185.540680,282.889343 
	C199.299545,282.211945 212.631561,281.995300 225.889496,280.889984 
	C247.609070,279.079224 269.517242,278.027161 290.917236,274.235809 
	C323.784149,268.412903 356.482880,261.325653 388.883392,253.285553 
	C414.461914,246.938324 440.175598,244.096130 466.318176,245.144089 
	C487.662506,245.999664 508.561249,249.724167 528.118713,258.983337 
	C528.813599,259.312378 529.478455,259.705109 529.977722,260.971588 
	C524.161438,260.548431 518.350952,259.891876 512.527832,259.749176 
	C499.079559,259.419495 485.609985,258.871216 472.178223,259.308228 
	C461.801025,259.645844 451.463928,261.306885 441.116272,262.445740 
	C399.009155,267.080017 358.144196,277.807129 316.994598,287.285095 
	C299.533844,291.306793 281.569763,294.417419 263.721069,295.139221 
	C244.012253,295.936249 224.173645,293.516449 204.391174,292.505188 
	C200.242157,292.293091 196.091507,292.113281 191.486603,291.901489 
z"/>
<path fill="#134D9A" opacity="1.000000" stroke="none" 
	d="
M182.529724,269.623199 
	C179.965347,268.606781 177.813065,267.636719 175.490753,266.394714 
	C224.286560,264.115997 272.896729,259.620880 319.752197,244.018570 
	C335.977417,238.615784 352.022675,232.708099 369.102448,230.543015 
	C390.923126,227.776932 412.548553,228.357834 433.720398,234.950546 
	C436.874756,235.932800 439.786377,237.694611 443.821564,239.564331 
	C430.749603,239.564331 419.069336,239.243408 407.412354,239.628510 
	C379.739563,240.542679 353.740234,249.105743 327.473114,256.904602 
	C307.143829,262.940491 286.410400,268.245575 265.485168,271.449005 
	C248.060989,274.116425 230.091507,273.868195 212.373764,273.716827 
	C202.552307,273.632996 192.751785,271.099121 182.529724,269.623199 
z"/>
<path fill="#134D9A" opacity="1.000000" stroke="none" 
	d="
M320.252747,383.086365 
	C324.583527,382.796875 328.655060,382.789886 332.416290,381.706116 
	C333.659729,381.347809 334.716675,378.197235 334.669128,376.354065 
	C334.642944,375.340149 332.177826,373.619507 330.751434,373.554535 
	C326.332275,373.353271 321.879242,373.720276 317.448242,374.004791 
	C313.336578,374.268829 310.593384,371.802826 310.551392,368.427551 
	C310.516693,365.636780 312.942780,362.815399 314.550415,359.436096 
	C310.212067,355.470093 308.367645,349.462250 309.183624,342.656067 
	C310.459778,332.011597 320.312042,326.138306 330.467407,329.753540 
	C331.688782,330.188324 333.402618,330.402283 334.477997,329.877655 
	C338.509155,327.911133 338.445312,327.780273 339.883484,331.620270 
	C339.883484,334.375549 339.425507,337.223419 339.960571,339.870544 
	C342.672333,353.286499 336.557678,361.159882 321.826904,362.998901 
	C319.969818,363.230774 318.178223,363.987366 316.356293,364.500824 
	C316.475159,365.288849 316.594025,366.076874 316.712891,366.864899 
	C319.995209,366.684601 323.320648,366.778107 326.551300,366.269562 
	C334.329559,365.045258 340.351349,367.930908 342.306641,374.144073 
	C344.721832,381.818512 338.432709,389.894470 328.985229,390.922302 
	C322.013153,391.680756 315.513458,390.147095 309.739807,386.028870 
	C312.390564,379.097595 312.390564,379.097595 320.252747,383.086365 
M318.278839,338.871979 
	C317.886719,342.397980 316.767914,346.033539 317.278992,349.423370 
	C317.982391,354.088989 322.434082,356.765289 326.439209,355.806610 
	C330.549713,354.822662 332.319672,351.737274 332.913757,347.851440 
	C333.762817,342.297882 331.859314,337.577301 328.003784,335.798035 
	C324.291351,334.084839 321.241028,335.261200 318.278839,338.871979 
z"/>
<path fill="#144C98" opacity="1.000000" stroke="none" 
	d="
M402.875549,329.761536 
	C404.668030,329.418701 406.138611,329.123901 407.621948,329.029541 
	C418.718872,328.323578 424.406799,333.112701 425.637604,344.169922 
	C425.784180,345.486877 425.834259,346.814606 425.994720,348.568909 
	C425.991211,353.315948 425.545624,357.667999 425.960632,361.936401 
	C426.361603,366.060608 427.649445,370.098602 428.585602,374.346252 
	C424.233948,375.812897 421.090851,374.514526 419.159790,370.314728 
	C416.461273,371.696259 414.241486,373.133850 411.819458,374.016296 
	C404.520966,376.675415 397.915405,374.355408 395.326233,368.449463 
	C392.137695,361.176361 394.527557,352.145355 401.392059,349.085510 
	C406.359985,346.871063 412.025116,346.220642 418.543518,344.579620 
	C417.379913,342.389099 416.688965,339.120361 414.687988,337.709167 
	C409.697327,334.189667 404.553802,336.365967 399.774841,338.988373 
	C395.268158,333.847687 395.692017,332.504028 402.875549,329.761536 
M405.294525,354.682526 
	C404.918304,355.008636 404.491486,355.291931 404.173615,355.667450 
	C400.806732,359.644928 400.363586,364.116394 403.037506,366.914032 
	C405.616699,369.612579 410.770630,369.664276 414.535400,367.029297 
	C418.181244,364.477600 420.422638,357.544373 418.072784,354.172089 
	C415.459930,350.422302 411.583588,352.059235 408.105957,353.088745 
	C407.327301,353.319244 406.634735,353.840668 405.294525,354.682526 
z"/>
<path fill="#144C98" opacity="1.000000" stroke="none" 
	d="
M271.635925,338.473694 
	C268.646729,332.625702 269.104279,331.411865 275.156738,330.153381 
	C278.365662,329.486145 281.819885,328.801025 284.976501,329.301819 
	C294.842987,330.867126 298.257935,335.356995 298.766663,346.731354 
	C299.004456,352.047455 298.708191,357.386627 298.916138,362.705139 
	C299.004486,364.965149 299.760437,367.199860 300.222321,369.444183 
	C300.559570,371.082794 300.912079,372.718292 301.257782,374.355164 
	C299.219116,374.213989 297.019470,374.492218 295.195312,373.792114 
	C293.861328,373.280182 293.021027,371.481812 291.871948,370.154388 
	C284.823212,375.096313 277.776825,377.523376 270.538025,371.819977 
	C266.798920,368.873962 265.728333,360.547394 268.367584,355.431641 
	C273.087738,346.282288 281.537842,345.528625 290.468292,346.350983 
	C291.511200,339.973816 287.661255,335.497742 281.297668,336.144226 
	C278.115845,336.467468 275.038788,337.821930 271.635925,338.473694 
M285.602386,352.032227 
	C283.557098,352.646179 281.343201,352.946533 279.500549,353.937347 
	C275.248627,356.223511 273.301453,361.028290 274.805237,364.848236 
	C276.298828,368.642334 279.516907,369.267975 283.011108,368.877563 
	C287.409088,368.386169 291.379852,364.535553 291.497406,360.504578 
	C291.607269,356.737640 292.939575,351.950226 285.602386,352.032227 
z"/>
<path fill="#134D9B" opacity="1.000000" stroke="none" 
	d="
M351.811462,341.035217 
	C351.820160,338.376556 351.878082,336.210510 351.824799,334.047241 
	C351.763092,331.542419 352.373718,329.971710 355.412354,329.962860 
	C358.409241,329.954163 359.042480,331.390076 359.020477,333.967682 
	C358.952240,341.960358 358.967712,349.954346 359.024261,357.947296 
	C359.071411,364.612793 361.673218,367.906891 366.787140,367.968414 
	C372.543884,368.037689 377.477264,363.584930 377.598969,357.860870 
	C377.765320,350.037323 377.698761,342.208252 377.681519,334.381653 
	C377.675720,331.745728 378.150055,329.913666 381.498077,329.964935 
	C384.646942,330.013153 384.934570,331.774597 384.929443,334.175812 
	C384.901917,347.135925 384.916412,360.096161 384.916412,373.350494 
	C381.226044,373.777710 377.642670,376.187988 376.545624,371.496521 
	C372.091919,372.731567 368.075836,374.559509 363.959381,374.823669 
	C357.359100,375.247314 352.551849,370.626678 352.196777,363.995667 
	C351.796539,356.521393 351.917297,349.019165 351.811462,341.035217 
z"/>
<path fill="#134D9A" opacity="1.000000" stroke="none" 
	d="
M213.426300,374.113159 
	C212.059753,372.720917 210.376953,371.302856 210.306244,369.808533 
	C210.000229,363.341431 210.247910,356.850342 210.119095,350.371490 
	C210.066956,347.748260 209.736389,345.100922 209.233444,342.522919 
	C208.387314,338.185883 204.891174,335.650146 200.695724,336.062225 
	C196.226410,336.501160 192.512070,339.787628 192.430344,343.874939 
	C192.260986,352.347351 192.321838,360.824860 192.332657,369.300201 
	C192.336182,372.055542 192.024536,374.159882 188.335724,374.031494 
	C184.632233,373.902557 185.093109,371.437866 185.086426,369.173737 
	C185.053009,357.873077 184.995193,346.571228 185.148376,335.272552 
	C185.171539,333.562653 186.258591,331.867188 186.853531,330.165039 
	C188.630920,331.073395 190.408325,331.981720 192.154205,332.873962 
	C195.747162,331.696655 199.967163,330.313904 204.594086,328.878510 
	C214.576202,331.971130 217.022537,334.957825 217.314972,344.897308 
	C217.555023,353.056427 217.394409,361.227325 217.410370,369.393005 
	C217.415176,371.854431 217.310791,374.235077 213.426300,374.113159 
z"/>
<path fill="#134D9A" opacity="1.000000" stroke="none" 
	d="
M242.949585,367.508362 
	C246.691376,367.213684 250.062485,366.585541 253.461807,366.323517 
	C255.029816,366.202637 257.323090,366.238159 258.112549,367.183716 
	C259.786987,369.189362 259.618408,371.454712 256.623932,372.698425 
	C242.339966,378.631073 228.637497,374.475311 226.153702,355.236298 
	C225.105530,347.117310 227.482803,339.585510 233.818787,333.581879 
	C239.359818,328.331512 251.882065,327.369476 259.283203,333.204956 
	C258.388672,334.906738 257.434662,336.721619 256.512054,338.476746 
	C243.199280,334.804352 238.264008,336.278381 235.161789,344.666138 
	C231.688248,354.057800 234.778992,363.484955 242.949585,367.508362 
z"/>
<path fill="#144C98" opacity="1.000000" stroke="none" 
	d="
M466.079071,386.626221 
	C466.274170,396.689423 466.332245,406.324188 466.401276,415.958862 
	C466.424194,419.160675 465.296753,420.739899 461.839844,419.425598 
	C461.114716,419.149841 460.157440,419.068909 459.426483,419.291046 
	C454.096954,420.910858 449.355896,420.118439 446.347290,415.183807 
	C443.256927,410.115112 443.467316,404.741333 446.960602,399.827148 
	C450.246948,395.203979 454.804291,394.092285 460.140656,395.707642 
	C460.415894,395.790955 460.776886,395.591064 461.698059,395.395874 
	C461.831238,392.983673 461.910034,390.403320 462.132629,387.835419 
	C462.375153,385.037811 463.632233,384.314758 466.079071,386.626221 
M450.048828,411.306122 
	C451.810242,415.287140 455.003326,416.593506 459.014679,415.646545 
	C463.228973,414.651764 461.822784,411.012238 462.051788,408.223175 
	C462.160187,406.903076 462.114044,405.562500 462.040070,404.236664 
	C461.795593,399.855804 458.539856,397.794067 454.488068,399.652100 
	C449.729828,401.834106 449.030762,405.926086 450.048828,411.306122 
z"/>
<path fill="#144C97" opacity="1.000000" stroke="none" 
	d="
M441.439514,400.284332 
	C443.586609,406.959625 442.903625,407.990448 436.648224,408.018372 
	C432.683533,408.036072 428.718750,408.021698 424.725067,408.021698 
	C425.237701,416.073456 429.860413,417.870392 437.925751,413.562073 
	C440.608887,415.852875 440.097565,417.506866 437.003845,418.911682 
	C431.621796,421.355591 423.797852,419.551849 421.297699,415.208862 
	C417.722717,408.998779 418.908386,400.760803 423.890594,397.192963 
	C429.230835,393.368805 436.240265,394.502014 441.439514,400.284332 
M425.937744,401.527710 
	C426.392212,402.658051 426.763000,404.717072 427.314850,404.766785 
	C430.687683,405.070709 434.101654,404.918762 437.703583,404.918762 
	C435.930237,398.628052 432.310883,397.597168 425.937744,401.527710 
z"/>
<path fill="#144C97" opacity="1.000000" stroke="none" 
	d="
M395.408539,400.104034 
	C396.073761,406.670227 396.541321,412.868439 396.995575,418.890747 
	C392.772614,419.215576 387.968079,419.780212 383.152832,419.895050 
	C379.149811,419.990540 376.895447,417.048492 376.576569,413.662720 
	C376.188690,409.544739 378.881195,406.541077 382.707306,405.112030 
	C385.143738,404.202087 387.828369,403.956726 390.988403,403.289490 
	C389.752625,399.137268 387.200195,398.689789 383.546356,399.652191 
	C382.143738,400.021606 380.481232,399.404266 378.937195,399.236572 
	C380.019348,398.049011 380.879486,396.350739 382.223846,395.766113 
	C386.922241,393.723083 392.239166,395.507355 395.408539,400.104034 
M382.285522,414.655792 
	C384.781799,414.798492 387.345825,415.318573 389.739380,414.888947 
	C390.635010,414.728180 391.566376,412.382446 391.654449,410.980957 
	C391.709320,410.108459 390.388580,408.665131 389.384949,408.297394 
	C385.768890,406.972504 382.142273,409.879303 382.285522,414.655792 
z"/>
<path fill="#134D9B" opacity="1.000000" stroke="none" 
	d="
M360.901611,385.996887 
	C363.306305,386.311432 365.282013,386.529297 367.211090,386.957306 
	C372.870239,388.212952 375.623444,391.084534 375.773560,395.740875 
	C375.940460,400.917023 373.526489,405.492462 368.201508,405.916229 
	C360.326508,406.542877 357.596436,409.766937 358.859131,417.256195 
	C358.981689,417.983002 357.781433,418.932800 357.195251,419.779114 
	C356.370667,418.975281 354.843842,418.184357 354.828796,417.365631 
	C354.654358,407.883392 354.594055,398.394928 354.756500,388.912476 
	C354.824646,384.935760 358.208527,386.324402 360.901611,385.996887 
M367.325134,390.947021 
	C359.735168,388.867889 359.126221,389.299438 359.167328,396.794495 
	C359.174561,398.118439 359.061310,399.493500 359.384399,400.746857 
	C359.588745,401.539581 360.678101,402.835175 361.064117,402.734192 
	C364.098175,401.940460 367.883423,401.670441 369.835419,399.673431 
	C372.362030,397.088440 371.558594,393.482086 367.325134,390.947021 
z"/>
<path fill="#144C97" opacity="1.000000" stroke="none" 
	d="
M492.035461,420.007446 
	C490.783661,419.930298 489.800140,420.117615 489.159882,419.733215 
	C487.810425,418.922913 486.640808,417.813110 485.397430,416.826172 
	C486.851715,416.369873 488.280792,415.791809 489.765930,415.484802 
	C492.224121,414.976593 495.136658,415.312256 497.102509,414.083801 
	C500.302094,412.084412 499.904968,408.372894 496.668610,406.374786 
	C494.562469,405.074432 492.208435,404.182709 490.011841,403.020355 
	C484.606781,400.160217 482.904083,394.634399 485.910614,389.869812 
	C488.304810,386.075806 497.374817,384.453094 500.824524,387.325439 
	C501.411713,387.814392 501.886414,389.304626 501.572510,389.807251 
	C501.098236,390.566650 499.655182,391.488342 499.023804,391.255707 
	C495.379608,389.912750 491.478821,388.513123 489.912354,393.451996 
	C488.265198,398.645264 493.103790,399.516663 496.391998,401.114990 
	C500.059113,402.897552 503.533051,404.738403 503.986359,409.467224 
	C504.584900,415.711182 500.278290,419.692688 492.035461,420.007446 
z"/>
<path fill="#134D9B" opacity="1.000000" stroke="none" 
	d="
M513.010193,406.754822 
	C513.045898,411.088684 512.782654,415.373383 518.119446,415.828613 
	C522.144409,416.171906 524.877441,412.224274 524.911194,406.811981 
	C524.929871,403.824463 524.782471,400.820251 525.073303,397.859222 
	C525.165588,396.920197 526.431641,396.096466 527.160583,395.220001 
	C527.839600,395.989746 529.089355,396.746063 529.107788,397.531342 
	C529.263733,404.164001 529.302673,410.805878 529.061523,417.433502 
	C529.030151,418.297058 527.277222,419.689087 526.205017,419.811157 
	C523.172546,420.156372 520.074890,419.870178 517.011414,420.014343 
	C512.427368,420.230042 509.533234,418.194519 509.217773,413.630737 
	C508.852386,408.344238 508.958832,403.018036 509.066650,397.713287 
	C509.083679,396.874725 510.187500,396.058289 510.788849,395.231628 
	C511.512329,396.098389 512.763123,396.910095 512.860474,397.842224 
	C513.152100,400.635162 512.992981,403.475159 513.010193,406.754822 
z"/>
<path fill="#134D9B" opacity="1.000000" stroke="none" 
	d="
M408.426849,403.034790 
	C408.158539,407.878387 408.173065,412.349121 407.893982,416.801483 
	C407.829773,417.825897 406.757904,418.787170 406.149780,419.777496 
	C405.322021,418.801605 403.813019,417.849731 403.777649,416.845978 
	C403.556366,410.564606 403.599731,404.270294 403.732147,397.983978 
	C403.751892,397.045502 404.656921,395.355164 405.227478,395.322479 
	C409.280731,395.090149 413.353485,395.198761 417.420013,395.198761 
	C417.664581,395.786255 417.909180,396.373718 418.153748,396.961212 
	C416.789917,397.688690 415.392273,398.360046 414.070465,399.157227 
	C412.218384,400.274170 410.422729,401.484711 408.426849,403.034790 
z"/>
<path fill="#134D9B" opacity="1.000000" stroke="none" 
	d="
M534.573608,407.992249 
	C534.573364,405.504272 534.543579,403.507324 534.579834,401.511627 
	C534.648499,397.731293 533.706177,393.295959 540.449707,395.972076 
	C542.594543,396.823242 545.658875,395.357422 548.302490,394.951813 
	C548.606689,395.587341 548.910889,396.222900 549.215149,396.858429 
	C547.967224,397.655548 546.727600,399.113312 545.469910,399.129059 
	C541.269531,399.181610 539.354431,401.373932 539.090271,405.172272 
	C538.848511,408.650024 539.221069,412.175354 538.898621,415.640259 
	C538.765259,417.072937 537.526001,418.402710 536.789734,419.779297 
	C536.060242,418.343201 534.936462,416.970367 534.693665,415.456207 
	C534.329346,413.184143 534.583008,410.812927 534.573608,407.992249 
z"/>
<path fill="#251E22" opacity="1.000000" stroke="none" 
	d="
M443.297363,350.070374 
	C444.486389,351.717438 445.350830,353.438721 446.346313,355.495667 
	C445.830322,355.974030 445.109772,356.373230 444.549713,356.212646 
	C442.672668,355.674347 440.852966,354.936127 439.011292,354.274445 
	C440.331818,352.897858 441.652313,351.521240 443.297363,350.070374 
z"/>
<path fill="#251E22" opacity="1.000000" stroke="none" 
	d="
M497.065369,375.792480 
	C498.322113,375.369843 499.789917,375.200195 501.628754,375.065521 
	C500.843628,377.506348 499.330811,378.129395 497.065369,375.792480 
z"/>
<path fill="#134D9A" opacity="1.000000" stroke="none" 
	d="
M52.039101,368.747681 
	C59.045658,349.588562 65.941544,330.786530 72.837433,311.984467 
	C73.487228,312.001587 74.137024,312.018707 74.786819,312.035828 
	C81.694168,332.354340 88.601509,352.672821 95.529633,373.052429 
	C88.066010,374.939484 87.632133,374.700043 85.697495,368.228973 
	C83.541725,361.018250 83.541733,361.018188 75.889526,361.012482 
	C75.222885,361.011963 74.556244,361.012329 73.889603,361.012299 
	C63.452877,361.011597 63.314499,360.961945 59.843128,370.639069 
	C58.052959,375.629517 54.554844,373.753906 50.719547,373.683167 
	C51.198307,371.869934 51.563370,370.487305 52.039101,368.747681 
M66.453568,349.870361 
	C66.152702,351.390961 65.851837,352.911560 65.511536,354.631500 
	C70.925430,354.631500 75.664764,354.631500 81.204605,354.631500 
	C78.725464,346.123749 76.409157,338.174805 74.092857,330.225861 
	C73.638107,330.239441 73.183365,330.253052 72.728622,330.266632 
	C70.729462,336.556610 68.730301,342.846558 66.453568,349.870361 
z"/>
<path fill="#134D9A" opacity="1.000000" stroke="none" 
	d="
M174.485870,363.340790 
	C170.062454,372.369354 163.760880,376.065216 155.273178,374.870422 
	C147.190140,373.732605 140.967392,367.812927 140.255249,358.615692 
	C139.769730,352.344910 140.335770,345.601013 142.223801,339.635895 
	C144.662842,331.929932 151.643280,328.455841 159.569733,329.025726 
	C167.094391,329.566711 172.754761,334.122375 174.975174,341.859802 
	C176.992325,348.888977 176.933762,355.979797 174.485870,363.340790 
M147.991425,360.174835 
	C150.283249,366.672302 153.403458,369.287598 158.462967,368.951813 
	C163.198669,368.637512 167.091064,365.046478 167.901825,358.848633 
	C168.538925,353.978394 168.457108,348.874725 167.765961,344.006592 
	C166.959610,338.327209 163.240295,335.246918 158.561188,335.044250 
	C153.898972,334.842285 149.572876,337.627289 148.534592,343.088806 
	C147.530899,348.368408 148.001907,353.928375 147.991425,360.174835 
z"/>
<path fill="#134D9A" opacity="1.000000" stroke="none" 
	d="
M116.424515,374.917725 
	C106.586548,372.600677 101.181923,366.786560 99.876938,357.536499 
	C98.237480,345.915619 102.001869,336.100616 109.798370,331.668213 
	C116.961426,327.595856 126.131454,328.203735 132.294266,333.267426 
	C131.329071,336.901642 129.997772,338.830505 125.391449,337.126068 
	C116.485306,333.830658 109.355247,338.029541 107.675720,347.397858 
	C107.048615,350.895874 107.189270,354.744141 107.929108,358.231293 
	C109.580391,366.014374 116.828056,369.771515 124.432449,367.208740 
	C126.276466,366.587280 128.024536,365.681030 129.762161,364.929382 
	C133.657364,370.699829 133.307083,372.170654 127.191322,373.708832 
	C123.852028,374.548676 120.306801,374.569763 116.424515,374.917725 
z"/>
<path fill="#241E21" opacity="1.000000" stroke="none" 
	d="
M286.435455,463.255798 
	C286.100525,463.976868 285.624603,464.543365 285.148682,465.109894 
	C284.848999,464.778412 284.549316,464.446930 284.249634,464.115417 
	C284.931213,463.777344 285.612823,463.439301 286.435455,463.255798 
z"/>
<path fill="#241F24" opacity="1.000000" stroke="none" 
	d="
M318.502472,338.566345 
	C321.241028,335.261200 324.291351,334.084839 328.003784,335.798035 
	C331.859314,337.577301 333.762817,342.297882 332.913757,347.851440 
	C332.319672,351.737274 330.549713,354.822662 326.439209,355.806610 
	C322.434082,356.765289 317.982391,354.088989 317.278992,349.423370 
	C316.767914,346.033539 317.886719,342.397980 318.502472,338.566345 
z"/>
<path fill="#232026" opacity="1.000000" stroke="none" 
	d="
M405.598541,354.455322 
	C406.634735,353.840668 407.327301,353.319244 408.105957,353.088745 
	C411.583588,352.059235 415.459930,350.422302 418.072784,354.172089 
	C420.422638,357.544373 418.181244,364.477600 414.535400,367.029297 
	C410.770630,369.664276 405.616699,369.612579 403.037506,366.914032 
	C400.363586,364.116394 400.806732,359.644928 404.173615,355.667450 
	C404.491486,355.291931 404.918304,355.008636 405.598541,354.455322 
z"/>
<path fill="#232026" opacity="1.000000" stroke="none" 
	d="
M286.014648,352.029968 
	C292.939575,351.950226 291.607269,356.737640 291.497406,360.504578 
	C291.379852,364.535553 287.409088,368.386169 283.011108,368.877563 
	C279.516907,369.267975 276.298828,368.642334 274.805237,364.848236 
	C273.301453,361.028290 275.248627,356.223511 279.500549,353.937347 
	C281.343201,352.946533 283.557098,352.646179 286.014648,352.029968 
z"/>
<path fill="#241F24" opacity="1.000000" stroke="none" 
	d="
M449.949646,410.939880 
	C449.030762,405.926086 449.729828,401.834106 454.488068,399.652100 
	C458.539856,397.794067 461.795593,399.855804 462.040070,404.236664 
	C462.114044,405.562500 462.160187,406.903076 462.051788,408.223175 
	C461.822784,411.012238 463.228973,414.651764 459.014679,415.646545 
	C455.003326,416.593506 451.810242,415.287140 449.949646,410.939880 
z"/>
<path fill="#241F24" opacity="1.000000" stroke="none" 
	d="
M426.206543,401.239685 
	C432.310883,397.597168 435.930237,398.628052 437.703583,404.918762 
	C434.101654,404.918762 430.687683,405.070709 427.314850,404.766785 
	C426.763000,404.717072 426.392212,402.658051 426.206543,401.239685 
z"/>
<path fill="#232026" opacity="1.000000" stroke="none" 
	d="
M382.095215,414.346863 
	C382.142273,409.879303 385.768890,406.972504 389.384949,408.297394 
	C390.388580,408.665131 391.709320,410.108459 391.654449,410.980957 
	C391.566376,412.382446 390.635010,414.728180 389.739380,414.888947 
	C387.345825,415.318573 384.781799,414.798492 382.095215,414.346863 
z"/>
<path fill="#232026" opacity="1.000000" stroke="none" 
	d="
M367.691864,391.106903 
	C371.558594,393.482086 372.362030,397.088440 369.835419,399.673431 
	C367.883423,401.670441 364.098175,401.940460 361.064117,402.734192 
	C360.678101,402.835175 359.588745,401.539581 359.384399,400.746857 
	C359.061310,399.493500 359.174561,398.118439 359.167328,396.794495 
	C359.126221,389.299438 359.735168,388.867889 367.691864,391.106903 
z"/>
<path fill="#222023" opacity="1.000000" stroke="none" 
	d="
M66.592354,349.503448 
	C68.730301,342.846558 70.729462,336.556610 72.728622,330.266632 
	C73.183365,330.253052 73.638107,330.239441 74.092857,330.225861 
	C76.409157,338.174805 78.725464,346.123749 81.204605,354.631500 
	C75.664764,354.631500 70.925430,354.631500 65.511536,354.631500 
	C65.851837,352.911560 66.152702,351.390961 66.592354,349.503448 
z"/>
<path fill="#222023" opacity="1.000000" stroke="none" 
	d="
M147.908279,359.770020 
	C148.001907,353.928375 147.530899,348.368408 148.534592,343.088806 
	C149.572876,337.627289 153.898972,334.842285 158.561188,335.044250 
	C163.240295,335.246918 166.959610,338.327209 167.765961,344.006592 
	C168.457108,348.874725 168.538925,353.978394 167.901825,358.848633 
	C167.091064,365.046478 163.198669,368.637512 158.462967,368.951813 
	C153.403458,369.287598 150.283249,366.672302 147.908279,359.770020 
z"/>
</svg>