<?xml version="1.0" standalone="no"?>
<!DOCTYPE svg PUBLIC "-//W3C//DTD SVG 20010904//EN"
 "http://www.w3.org/TR/2001/REC-SVG-20010904/DTD/svg10.dtd">
<svg version="1.0" xmlns="http://www.w3.org/2000/svg"
 width="519.000000pt" height="294.000000pt" viewBox="0 0 519.000000 294.000000"
 preserveAspectRatio="xMidYMid meet">

<g transform="translate(0.000000,294.000000) scale(0.100000,-0.100000)"
fill="#000000" stroke="none">
<path d="M2186 2755 c-82 -91 -153 -165 -159 -165 -6 0 -32 21 -58 46 -35 34
-52 44 -65 39 -11 -4 -151 -148 -313 -322 -162 -173 -300 -317 -308 -320 -9
-4 -37 17 -73 52 -54 54 -60 57 -79 44 -32 -23 -618 -706 -589 -687 15 10 156
113 314 229 313 230 291 219 385 183 l46 -18 285 270 286 270 125 -14 126 -14
38 29 c21 15 77 58 125 95 l86 67 112 -69 c61 -38 167 -107 235 -154 175 -119
153 -113 237 -65 40 22 79 41 88 41 8 1 91 -33 184 -75 93 -42 171 -75 173
-74 1 2 -84 90 -191 195 -118 117 -201 192 -213 192 -10 0 -45 -23 -76 -51
-31 -28 -63 -49 -71 -47 -8 2 -114 111 -237 243 -136 148 -230 241 -243 243
-17 2 -54 -33 -170 -163z"/>
<path d="M3246 2040 c-139 -16 -236 -40 -461 -115 -435 -143 -777 -203 -1410
-244 -106 -6 -117 -9 -92 -19 86 -36 418 -67 622 -59 309 14 531 60 1010 212
345 109 471 130 793 130 177 0 219 2 206 12 -26 19 -136 53 -222 69 -99 18
-344 25 -446 14z"/>
<path d="M3855 1883 c-163 -13 -273 -33 -533 -98 -804 -199 -1054 -233 -2032
-280 -178 -9 -325 -17 -327 -19 -4 -3 5 -5 322 -41 536 -62 834 -72 1070 -35
197 30 331 59 635 135 468 116 945 192 1330 210 121 6 367 -5 460 -20 l35 -6
-37 21 c-97 53 -321 111 -507 130 -95 9 -321 11 -416 3z"/>
<path d="M3875 1639 c-231 -23 -382 -57 -995 -219 -384 -102 -548 -138 -845
-186 -185 -30 -355 -36 -670 -22 -158 7 -159 6 -85 -8 41 -8 201 -32 355 -55
361 -53 401 -52 1045 17 340 36 517 74 930 197 369 111 547 141 835 141 264 0
385 -30 485 -120 65 -58 83 -108 88 -242 4 -110 4 -114 -27 -177 -66 -134
-192 -199 -436 -225 -158 -18 -310 5 -527 79 -49 16 -88 26 -88 22 0 -4 16
-34 35 -67 45 -76 102 -127 173 -156 52 -21 73 -22 242 -22 173 0 191 2 274
27 297 92 484 256 514 452 26 167 -91 353 -278 443 -180 86 -384 123 -705 127
-126 2 -270 -1 -320 -6z"/>
<path d="M225 1208 c-2 -7 -52 -143 -110 -301 -58 -159 -105 -293 -105 -298 0
-5 18 -9 39 -9 l39 0 17 65 18 65 108 0 108 0 15 -54 c9 -30 16 -59 16 -65 0
-12 80 -16 80 -3 1 19 -205 612 -212 612 -5 0 -11 -6 -13 -12z m51 -280 c18
-62 34 -119 34 -125 0 -9 -23 -13 -80 -13 -44 0 -80 3 -80 7 0 5 59 195 76
242 7 22 13 9 50 -111z"/>
<path d="M2855 1040 c-12 -13 -22 -17 -29 -11 -6 5 -27 12 -47 16 -152 28
-249 -158 -142 -276 32 -36 33 -38 13 -44 -48 -15 -51 -98 -4 -116 15 -5 60
-6 103 -3 65 6 80 4 94 -10 66 -67 -65 -126 -165 -75 l-41 21 -18 -23 c-26
-34 -24 -38 24 -59 63 -28 111 -33 167 -20 92 22 138 97 107 173 -22 51 -48
61 -156 62 -136 0 -130 31 11 50 52 7 91 33 113 75 17 34 20 132 4 162 -9 16
-7 24 10 42 21 22 21 23 3 39 -23 21 -25 21 -47 -3z m-50 -76 c36 -39 36 -124
0 -159 -50 -51 -126 -18 -140 59 -19 97 79 166 140 100z"/>
<path d="M640 1038 c-90 -26 -140 -105 -140 -223 0 -82 22 -138 68 -177 61
-51 141 -60 226 -24 34 14 34 16 23 45 -13 36 -18 37 -53 15 -32 -22 -116 -14
-145 12 -49 43 -65 153 -32 221 30 64 112 91 179 61 23 -11 28 -10 40 7 23 31
17 42 -33 59 -52 18 -82 19 -133 4z"/>
<path d="M1029 1040 c-81 -24 -129 -103 -129 -213 0 -38 5 -88 12 -110 44
-146 243 -169 317 -36 29 52 39 155 21 228 -25 103 -122 161 -221 131z m116
-74 c61 -61 61 -223 -2 -288 -52 -55 -141 -27 -163 50 -14 53 -12 147 4 186
32 76 111 102 161 52z"/>
<path d="M1490 1039 c-14 -5 -35 -20 -47 -31 l-22 -21 -12 27 c-8 17 -20 26
-36 26 l-23 0 0 -220 0 -220 35 0 35 0 0 164 0 164 31 26 c43 36 100 36 128 0
19 -25 21 -40 21 -190 l0 -164 35 0 35 0 0 170 c0 186 -8 225 -54 255 -32 21
-93 28 -126 14z"/>
<path d="M1910 1038 c-90 -26 -140 -105 -140 -223 0 -82 22 -138 68 -177 61
-51 141 -60 226 -24 34 14 34 16 23 45 -13 36 -18 37 -53 15 -32 -22 -116 -14
-145 12 -49 43 -65 153 -32 221 30 64 112 91 179 61 23 -11 28 -10 40 7 23 31
17 42 -33 59 -52 18 -82 19 -133 4z"/>
<path d="M2248 1035 c-51 -17 -60 -35 -34 -70 12 -17 14 -17 37 -2 13 10 43
17 69 17 54 0 83 -24 95 -78 l7 -33 -39 7 c-114 18 -229 -80 -209 -179 20
-102 126 -136 220 -72 25 17 36 20 36 11 0 -19 22 -35 58 -42 36 -7 43 10 18
49 -9 15 -15 66 -19 158 -5 152 -19 199 -69 225 -43 22 -116 26 -170 9z m170
-259 c5 -58 -5 -85 -41 -106 -63 -39 -137 -14 -137 46 0 61 58 106 130 102 45
-3 45 -3 48 -42z"/>
<path d="M3518 1035 c-51 -17 -60 -35 -34 -70 12 -17 14 -17 37 -2 13 10 43
17 69 17 54 0 83 -24 95 -78 l7 -33 -39 7 c-114 18 -229 -80 -209 -179 20
-102 126 -136 220 -72 25 17 36 20 36 11 0 -19 22 -35 58 -42 36 -7 43 10 18
49 -9 15 -15 66 -19 158 -5 152 -19 199 -69 225 -43 22 -116 26 -170 9z m170
-259 c5 -58 -5 -85 -41 -106 -63 -39 -137 -14 -137 46 0 61 58 106 130 102 45
-3 45 -3 48 -42z"/>
<path d="M3022 858 c3 -171 4 -185 26 -215 44 -62 134 -67 197 -11 l35 30 0
-31 c0 -29 3 -31 35 -31 l35 0 0 220 0 220 -35 0 -35 0 0 -159 0 -159 -35 -31
c-47 -41 -104 -43 -134 -5 -19 25 -21 40 -21 190 l0 164 -36 0 -36 0 4 -182z"/>
<path d="M4120 430 c0 -59 -1 -60 -21 -49 -32 17 -84 2 -113 -32 -32 -37 -40
-69 -33 -116 11 -68 78 -108 140 -84 17 7 27 7 27 1 0 -6 9 -10 20 -10 19 0
20 7 20 175 0 168 -1 175 -20 175 -18 0 -20 -7 -20 -60z m-16 -86 c13 -5 16
-22 16 -79 0 -78 -5 -85 -56 -85 -33 0 -74 42 -74 75 0 31 24 81 42 88 19 8
54 8 72 1z"/>
<path d="M3050 311 c0 -164 1 -171 20 -171 18 0 20 7 20 64 l0 63 51 6 c66 8
95 28 109 74 24 79 -18 121 -129 130 l-71 6 0 -172z m138 113 c15 -10 22 -25
22 -49 0 -42 -29 -65 -82 -65 l-38 0 0 65 0 65 38 0 c21 0 48 -7 60 -16z"/>
<path d="M4404 471 c-46 -20 -67 -79 -44 -122 6 -10 37 -32 70 -49 66 -33 80
-58 55 -97 -16 -24 -21 -25 -70 -20 -40 4 -55 2 -59 -8 -7 -18 1 -23 50 -31
51 -8 110 16 126 51 8 17 9 37 2 63 -8 32 -17 42 -69 69 -71 37 -87 63 -59 94
16 17 26 20 62 15 33 -4 44 -2 49 10 3 8 3 17 1 19 -10 10 -94 14 -114 6z"/>
<path d="M3317 378 c-29 -10 -35 -47 -6 -39 50 14 83 13 96 -5 22 -30 15 -39
-26 -39 -103 0 -150 -99 -69 -145 25 -13 32 -13 72 1 25 9 47 13 48 9 2 -4 14
-11 27 -15 21 -6 23 -5 16 11 -5 11 -10 51 -12 89 -5 103 -9 114 -48 131 -39
16 -59 17 -98 2z m101 -155 c3 -27 -1 -33 -21 -38 -37 -10 -69 -2 -81 18 -16
26 26 59 68 55 27 -3 31 -7 34 -35z"/>
<path d="M3540 265 c0 -118 1 -125 20 -125 18 0 20 7 20 88 0 76 3 92 20 107
12 11 29 16 44 13 23 -5 36 7 36 33 0 22 -74 2 -92 -25 -5 -6 -8 -1 -8 12 0
15 -6 22 -20 22 -19 0 -20 -7 -20 -125z"/>
<path d="M3763 375 c-44 -19 -66 -66 -61 -127 3 -27 13 -57 23 -68 28 -31 83
-44 133 -31 44 12 48 17 32 41 -7 12 -12 12 -22 2 -6 -6 -29 -12 -49 -12 -29
0 -43 6 -58 26 -38 48 -30 54 69 54 l90 0 0 31 c0 43 -16 69 -55 85 -42 17
-61 17 -102 -1z m99 -42 c36 -32 23 -43 -52 -43 -38 0 -70 3 -70 7 0 4 10 17
22 30 26 27 73 30 100 6z"/>
<path d="M4590 298 c0 -54 6 -103 13 -118 18 -35 69 -48 113 -27 29 14 34 15
34 2 0 -8 9 -15 20 -15 19 0 20 7 20 125 0 118 -1 125 -20 125 -18 0 -20 -7
-20 -88 0 -100 -12 -122 -68 -122 -43 0 -52 22 -52 124 0 79 -2 86 -20 86 -19
0 -20 -7 -20 -92z"/>
<path d="M4850 265 c0 -118 1 -125 20 -125 18 0 20 7 20 88 0 76 3 92 20 107
12 11 29 16 44 13 23 -5 36 7 36 33 0 22 -74 2 -92 -25 -5 -6 -8 -1 -8 12 0
15 -6 22 -20 22 -19 0 -20 -7 -20 -125z"/>
</g>
</svg>
